<?xml version="1.0" standalone="no"?><!DOCTYPE svg PUBLIC "-//W3C//DTD SVG 1.1//EN" "http://www.w3.org/Graphics/SVG/1.1/DTD/svg11.dtd"><svg t="1694942024915" class="icon" viewBox="0 0 1024 1024" version="1.1" xmlns="http://www.w3.org/2000/svg" p-id="1939" xmlns:xlink="http://www.w3.org/1999/xlink" width="200" height="200"><path d="M512 198.8c-170.7 0-309 138.4-309 309s138.4 309 309 309 309-138.4 309-309-138.4-309-309-309z m202.4 345.9H548.5v164c0 19.9-16.1 36-36 36s-36-16.1-36-36v-164H310.4c-19.9 0-36-16.1-36-36s16.1-36 36-36h166.1v-167c0-19.9 16.1-36 36-36s36 16.1 36 36v167h165.9c19.9 0 36 16.1 36 36s-16.1 36-36 36z" p-id="1940" fill="#ffffff"></path></svg>